<svg width="57" height="39" viewBox="0 0 57 39" fill="none" xmlns="http://www.w3.org/2000/svg">
<path d="M1 0C0.447715 0 0 0.447715 0 1C0 1.55228 0.447715 2 1 2V1V0ZM21.9969 1H22.9969V0H21.9969V1ZM20.9969 33V34H22.9969V33H21.9969H20.9969ZM6 5C5.44772 5 5 5.44772 5 6C5 6.55228 5.44772 7 6 7V6V5ZM17 6H18V5H17V6ZM17 38V39H18V38H17ZM29 16C29 16.5523 29.4477 17 30 17C30.5523 17 31 16.5523 31 16H30H29ZM31 1C31 0.447715 30.5523 0 30 0C29.4477 0 29 0.447715 29 1H30H31ZM36 1C36 0.447715 35.5523 0 35 0C34.4477 0 34 0.447715 34 1H35H36ZM34 10.5C34 11.0523 34.4477 11.5 35 11.5C35.5523 11.5 36 11.0523 36 10.5H35H34ZM29 38C29 38.5523 29.4477 39 30 39C30.5523 39 31 38.5523 31 38H30H29ZM30 24.5L29.2194 23.875L29 24.149V24.5H30ZM49.5975 1.62504C49.9427 1.19393 49.873 0.564603 49.4419 0.219404C49.0108 -0.125794 48.3815 -0.0561475 48.0363 0.374964L48.8169 1L49.5975 1.62504ZM33.6348 37.9206C33.6348 38.4729 34.0825 38.9206 34.6348 38.9206C35.187 38.9206 35.6348 38.4729 35.6348 37.9206H34.6348H33.6348ZM34.6348 27.8625L33.8554 27.236L33.6348 27.5104V27.8625H34.6348ZM37.8887 23.8147L38.6725 23.1938L37.8944 22.2115L37.1093 23.1882L37.8887 23.8147ZM48.2786 38.5415C48.6215 38.9744 49.2505 39.0474 49.6834 38.7045C50.1163 38.3615 50.1892 37.7326 49.8463 37.2997L49.0624 37.9206L48.2786 38.5415ZM55.2139 38.5387C55.5553 38.9728 56.184 39.0481 56.6181 38.7067C57.0523 38.3653 57.1275 37.7366 56.7861 37.3025L56 37.9206L55.2139 38.5387ZM41.3881 19.3376L40.6061 18.7145L40.1128 19.3335L40.6021 19.9557L41.3881 19.3376ZM56.7821 1.62318C57.1263 1.19125 57.0551 0.562093 56.6232 0.217921C56.1912 -0.126251 55.5621 -0.0551094 55.2179 0.376821L56 1L56.7821 1.62318ZM3 31C3 30.4477 2.55228 30 2 30C1.44772 30 1 30.4477 1 31H2H3ZM2.53012 33.6788L1.60556 34.0598H1.60556L2.53012 33.6788ZM8 29C8 28.4477 7.55228 28 7 28C6.44772 28 6 28.4477 6 29H7H8ZM12 34H13V32H12V33V34ZM1 1V2H21.9969V1V0H1V1ZM21.9969 1H20.9969V33H21.9969H22.9969V1H21.9969ZM6 6V7H17V6V5H6V6ZM17 6H16V38H17H18V6H17ZM30 16H31V1H30H29V16H30ZM35 1H34V10.5H35H36V1H35ZM30 38H31V24.5H30H29V38H30ZM30 24.5L30.7806 25.125L49.5975 1.62504L48.8169 1L48.0363 0.374964L29.2194 23.875L30 24.5ZM34.6348 37.9206H35.6348V27.8625H34.6348H33.6348V37.9206H34.6348ZM34.6348 27.8625L35.4142 28.489L38.6681 24.4413L37.8887 23.8147L37.1093 23.1882L33.8554 27.236L34.6348 27.8625ZM37.8887 23.8147L37.1048 24.4356L48.2786 38.5415L49.0624 37.9206L49.8463 37.2997L38.6725 23.1938L37.8887 23.8147ZM56 37.9206L56.7861 37.3025L42.1742 18.7195L41.3881 19.3376L40.6021 19.9557L55.2139 38.5387L56 37.9206ZM41.3881 19.3376L42.1702 19.9608L56.7821 1.62318L56 1L55.2179 0.376821L40.6061 18.7145L41.3881 19.3376ZM2 31H1C1 32.0499 1.20573 33.0896 1.60556 34.0598L2.53012 33.6788L3.45469 33.2978C3.15455 32.5694 3 31.7886 3 31H2ZM2.53012 33.6788L1.60556 34.0598C2.00539 35.03 2.59157 35.9119 3.33088 36.655L4.03979 35.9497L4.7487 35.2444C4.19462 34.6875 3.75484 34.0261 3.45469 33.2978L2.53012 33.6788ZM4.03979 35.9497L3.33088 36.655C4.0702 37.3982 4.94817 37.9879 5.91481 38.3903L6.29917 37.4672L6.68353 36.544C5.96027 36.2429 5.30277 35.8014 4.7487 35.2444L4.03979 35.9497ZM6.29917 37.4672L5.91481 38.3903C6.88146 38.7928 7.91769 39 8.96428 39V38V37C8.18176 37 7.40677 36.8451 6.68353 36.544L6.29917 37.4672ZM8.96428 38V39H17V38V37H8.96428V38ZM7 29H6C6 29.6628 6.13644 30.318 6.40031 30.9279L7.31807 30.5307L8.23584 30.1336C8.07972 29.7728 8 29.3878 8 29H7ZM7.31807 30.5307L6.40031 30.9279C6.66413 31.5375 7.04956 32.0886 7.53237 32.5508L8.22388 31.8284L8.91538 31.1061C8.62216 30.8254 8.39201 30.4945 8.23584 30.1336L7.31807 30.5307ZM8.22388 31.8284L7.53237 32.5508C8.01509 33.0129 8.58582 33.3773 9.21091 33.6251L9.5795 32.6955L9.9481 31.7659C9.55925 31.6117 9.20869 31.3868 8.91538 31.1061L8.22388 31.8284ZM9.5795 32.6955L9.21091 33.6251C9.83594 33.8729 10.5044 34 11.1786 34V33V32C10.7552 32 10.337 31.9201 9.9481 31.7659L9.5795 32.6955ZM11.1786 33V34H12V33V32H11.1786V33Z" fill="black"/>
</svg>
